<svg width="32" height="32" viewBox="0 0 32 32" fill="none" xmlns="http://www.w3.org/2000/svg">
    <rect width="32" height="32" rx="4" fill="#083344"/>
    <path d="M23 7H9C7.89543 7 7 7.89543 7 9V23C7 24.1046 7.89543 25 9 25H23C24.1046 25 25 24.1046 25 23V9C25 7.89543 24.1046 7 23 7Z"
          stroke="#A5F3FC" stroke-width="2" stroke-linecap="round" stroke-linejoin="round"/>
    <path d="M20 5V9" stroke="#A5F3FC" stroke-width="2" stroke-linecap="round" stroke-linejoin="round"/>
    <path d="M12 5V9" stroke="#A5F3FC" stroke-width="2" stroke-linecap="round" stroke-linejoin="round"/>
    <path d="M7 13H25" stroke="#A5F3FC" stroke-width="2" stroke-linecap="round" stroke-linejoin="round"/>
    <path d="M12 17H12.01" stroke="#A5F3FC" stroke-width="2" stroke-linecap="round" stroke-linejoin="round"/>
    <path d="M16 17H16.01" stroke="#A5F3FC" stroke-width="2" stroke-linecap="round" stroke-linejoin="round"/>
    <path d="M20 17H20.01" stroke="#A5F3FC" stroke-width="2" stroke-linecap="round" stroke-linejoin="round"/>
    <path d="M12 21H12.01" stroke="#A5F3FC" stroke-width="2" stroke-linecap="round" stroke-linejoin="round"/>
    <path d="M16 21H16.01" stroke="#A5F3FC" stroke-width="2" stroke-linecap="round" stroke-linejoin="round"/>
    <path d="M20 21H20.01" stroke="#A5F3FC" stroke-width="2" stroke-linecap="round" stroke-linejoin="round"/>
</svg>
