<svg width="626" height="366" viewBox="0 0 626 366" fill="none" xmlns="http://www.w3.org/2000/svg">
    <rect width="626" height="366" fill="white"/>
    <rect x="160" y="16" width="236" height="16" rx="4" stroke="#E4E4E7" stroke-width="2"/>
    <rect x="522" y="16" width="88" height="16" rx="4" fill="#22C55E"/>
    <rect width="144" height="366" fill="#FAFAFA"/>
    <rect x="16" y="16" width="96" height="8" rx="4" fill="#D4D4D8"/>
    <rect x="16" y="40" width="12" height="12" rx="4" fill="#E4E4E7"/>
    <rect x="36" y="42" width="72" height="8" rx="4" fill="#E4E4E7"/>
    <rect x="16" y="64" width="12" height="12" rx="4" fill="#E4E4E7"/>
    <rect x="36" y="66" width="72" height="8" rx="4" fill="#E4E4E7"/>
    <rect x="16" y="88" width="12" height="12" rx="4" fill="#E4E4E7"/>
    <rect x="36" y="90" width="72" height="8" rx="4" fill="#E4E4E7"/>
    <rect x="16" y="128" width="96" height="8" rx="4" fill="#D4D4D8"/>
    <rect x="16" y="152" width="12" height="12" rx="4" fill="#E4E4E7"/>
    <rect x="36" y="154" width="72" height="8" rx="4" fill="#E4E4E7"/>
    <rect x="16" y="176" width="12" height="12" rx="4" fill="#E4E4E7"/>
    <rect x="36" y="178" width="72" height="8" rx="4" fill="#E4E4E7"/>
    <rect x="16" y="200" width="12" height="12" rx="4" fill="#E4E4E7"/>
    <rect x="36" y="202" width="72" height="8" rx="4" fill="#E4E4E7"/>
    <rect x="160" y="48" width="450" height="302" rx="8" fill="#FAFAFA"/>
    <rect x="168" y="56" width="12" height="12" rx="4" fill="#22C55E"/>
    <rect x="204" y="58" width="32" height="8" rx="4" fill="#D4D4D8"/>
    <rect x="300" y="58" width="32" height="8" rx="4" fill="#D4D4D8"/>
    <rect x="364" y="58" width="32" height="8" rx="4" fill="#D4D4D8"/>
    <rect x="428" y="58" width="32" height="8" rx="4" fill="#D4D4D8"/>
    <rect x="570" y="58" width="32" height="8" rx="4" fill="#D4D4D8"/>
    <rect x="168" y="86" width="12" height="12" rx="4" fill="#22C55E"/>
    <rect x="204" y="88" width="32" height="8" rx="4" fill="#E4E4E7"/>
    <rect x="300" y="88" width="32" height="8" rx="4" fill="#E4E4E7"/>
    <rect x="364" y="88" width="32" height="8" rx="4" fill="#E4E4E7"/>
    <rect x="428" y="88" width="64" height="8" rx="4" fill="#E4E4E7"/>
    <rect x="570" y="88" width="32" height="8" rx="4" fill="#E4E4E7"/>
    <rect x="168" y="110" width="12" height="12" rx="4" fill="#22C55E"/>
    <rect x="204" y="112" width="48" height="8" rx="4" fill="#E4E4E7"/>
    <rect x="308" y="112" width="24" height="8" rx="4" fill="#E4E4E7"/>
    <rect x="364" y="112" width="32" height="8" rx="4" fill="#E4E4E7"/>
    <rect x="428" y="112" width="32" height="8" rx="4" fill="#E4E4E7"/>
    <rect x="570" y="112" width="32" height="8" rx="4" fill="#E4E4E7"/>
    <rect x="168" y="134" width="12" height="12" rx="4" stroke="#E4E4E7" stroke-width="2"/>
    <rect x="204" y="136" width="32" height="8" rx="4" fill="#E4E4E7"/>
    <rect x="300" y="136" width="32" height="8" rx="4" fill="#E4E4E7"/>
    <rect x="364" y="136" width="32" height="8" rx="4" fill="#E4E4E7"/>
    <rect x="428" y="136" width="48" height="8" rx="4" fill="#E4E4E7"/>
    <rect x="168" y="158" width="12" height="12" rx="4" fill="#22C55E"/>
    <rect x="204" y="160" width="64" height="8" rx="4" fill="#E4E4E7"/>
    <rect x="300" y="160" width="32" height="8" rx="4" fill="#E4E4E7"/>
    <rect x="364" y="160" width="32" height="8" rx="4" fill="#E4E4E7"/>
    <rect x="428" y="160" width="32" height="8" rx="4" fill="#E4E4E7"/>
    <rect x="570" y="160" width="32" height="8" rx="4" fill="#E4E4E7"/>
    <rect x="168" y="182" width="12" height="12" rx="4" stroke="#E4E4E7" stroke-width="2"/>
    <rect x="204" y="184" width="32" height="8" rx="4" fill="#E4E4E7"/>
    <rect x="300" y="184" width="32" height="8" rx="4" fill="#E4E4E7"/>
    <rect x="364" y="184" width="32" height="8" rx="4" fill="#E4E4E7"/>
    <rect x="428" y="184" width="32" height="8" rx="4" fill="#E4E4E7"/>
    <rect x="570" y="184" width="32" height="8" rx="4" fill="#E4E4E7"/>
    <rect x="168" y="206" width="12" height="12" rx="4" stroke="#E4E4E7" stroke-width="2"/>
    <rect x="204" y="208" width="48" height="8" rx="4" fill="#E4E4E7"/>
    <rect x="308" y="208" width="24" height="8" rx="4" fill="#E4E4E7"/>
    <rect x="364" y="208" width="32" height="8" rx="4" fill="#E4E4E7"/>
    <rect x="428" y="208" width="72" height="8" rx="4" fill="#E4E4E7"/>
    <rect x="570" y="208" width="32" height="8" rx="4" fill="#E4E4E7"/>
    <rect x="168" y="230" width="12" height="12" rx="4" fill="#22C55E"/>
    <rect x="204" y="232" width="32" height="8" rx="4" fill="#E4E4E7"/>
    <rect x="300" y="232" width="32" height="8" rx="4" fill="#E4E4E7"/>
    <rect x="364" y="232" width="32" height="8" rx="4" fill="#E4E4E7"/>
    <rect x="428" y="232" width="32" height="8" rx="4" fill="#E4E4E7"/>
    <rect x="570" y="232" width="32" height="8" rx="4" fill="#E4E4E7"/>
    <rect x="168" y="254" width="12" height="12" rx="4" stroke="#E4E4E7" stroke-width="2"/>
    <rect x="204" y="256" width="32" height="8" rx="4" fill="#E4E4E7"/>
    <rect x="300" y="256" width="32" height="8" rx="4" fill="#E4E4E7"/>
    <rect x="364" y="256" width="32" height="8" rx="4" fill="#E4E4E7"/>
    <rect x="428" y="256" width="32" height="8" rx="4" fill="#E4E4E7"/>
    <rect x="168" y="278" width="12" height="12" rx="4" fill="#22C55E"/>
    <rect x="204" y="280" width="64" height="8" rx="4" fill="#E4E4E7"/>
    <rect x="308" y="280" width="24" height="8" rx="4" fill="#E4E4E7"/>
    <rect x="364" y="280" width="32" height="8" rx="4" fill="#E4E4E7"/>
    <rect x="428" y="280" width="48" height="8" rx="4" fill="#E4E4E7"/>
    <rect x="570" y="280" width="32" height="8" rx="4" fill="#E4E4E7"/>
    <rect x="168" y="302" width="12" height="12" rx="4" fill="#22C55E"/>
    <rect x="204" y="304" width="32" height="8" rx="4" fill="#E4E4E7"/>
    <rect x="300" y="304" width="32" height="8" rx="4" fill="#E4E4E7"/>
    <rect x="364" y="304" width="32" height="8" rx="4" fill="#E4E4E7"/>
    <rect x="428" y="304" width="32" height="8" rx="4" fill="#E4E4E7"/>
    <rect x="570" y="304" width="32" height="8" rx="4" fill="#E4E4E7"/>
    <rect x="168" y="326" width="12" height="12" rx="4" fill="#22C55E"/>
    <rect x="204" y="328" width="42" height="8" rx="4" fill="#E4E4E7"/>
    <rect x="300" y="328" width="32" height="8" rx="4" fill="#E4E4E7"/>
    <rect x="364" y="328" width="32" height="8" rx="4" fill="#E4E4E7"/>
    <rect x="428" y="328" width="32" height="8" rx="4" fill="#E4E4E7"/>
    <rect x="570" y="328" width="32" height="8" rx="4" fill="#E4E4E7"/>
    <rect x="160" y="76" width="450" height="2" fill="#D9D9D9"/>
</svg>
